<?xml version="1.0" encoding="UTF-8"?>
<svg id="Ebene_1" xmlns="http://www.w3.org/2000/svg" version="1.1" xmlns:xlink="http://www.w3.org/1999/xlink" viewBox="0 0 144.57 40.82">
  <!-- Generator: Adobe Illustrator 29.8.2, SVG Export Plug-In . SVG Version: 2.1.1 Build 3)  -->
  <defs>
    <style>
      .st0 {
        fill: #1d1d1b;
      }

      .st1 {
        fill: none;
      }

      .st2 {
        fill: #ffed00;
        font-family: MinionPro-Regular, 'Minion Pro';
        font-size: 30px;
      }

      .st3 {
        fill: #e61d4c;
      }

      .st4 {
        clip-path: url(#clippath);
      }
    </style>
    <clipPath id="clippath">
      <rect class="st1" y="0" width="144.57" height="40.82"/>
    </clipPath>
  </defs>
  <path class="st3" d="M8.41,34.63l4.89-18.24,1.66.44-4.89,18.24-1.66-.44ZM4.17,16.29h1.72v18.88h-1.72v-18.88ZM16.59,16.29h1.72v18.88h-1.72v-18.88ZM20.43,16.29h1.72v18.88h-1.72v-18.88ZM24.26,16.29h1.72v18.88h-1.72v-18.88ZM0,40.81h30.15V10.65H0v30.15ZM39.56.01H5.32v7.09h3.55v-3.55h28.38v33.7h-3.55v3.55h7.09V.01h-1.23Z"/>
  <g class="st4">
    <path class="st0" d="M109.23,40.81v-1.05h-5.71l.54-.63,5.02-6.2v-1.05h-6.4v1.05h4.99c-.29.3-.6.65-.93,1.06l-4.58,5.72v1.1h7.07ZM96.88,34.51c.21-.57.37-1.13.48-1.71.14.48.35,1.1.63,1.85l.93,2.47h-3.03l.98-2.62ZM94.57,40.81l.98-2.71h3.74l1.04,2.71h1.35l-3.66-8.94h-1.28l-3.43,8.94h1.26ZM86.23,32.86h2.83c.66,0,1.15.14,1.45.41.31.27.46.62.46,1.04,0,.29-.08.56-.24.8-.16.25-.39.43-.69.54-.31.11-.73.17-1.27.17h-2.54v-2.96ZM86.23,40.81v-3.97h1.37c.31,0,.52.02.66.04.18.05.36.12.54.24.18.11.38.31.6.6.22.29.51.7.85,1.23l1.18,1.86h1.49l-1.55-2.43c-.31-.48-.64-.87-.98-1.19-.16-.15-.4-.29-.71-.44.86-.12,1.49-.39,1.9-.83.41-.43.62-.97.62-1.6,0-.49-.12-.94-.37-1.35-.25-.41-.58-.69-.99-.85-.41-.16-1.02-.24-1.82-.24h-3.96v8.94h1.18ZM81.88,37.3v1.66c-.25.22-.62.43-1.11.63-.49.2-.99.3-1.5.3-.59,0-1.15-.13-1.67-.39-.52-.26-.92-.66-1.2-1.19-.27-.54-.41-1.2-.41-2,0-.65.11-1.25.34-1.8.13-.32.32-.62.56-.88.24-.27.56-.48.95-.65.39-.16.86-.25,1.4-.25.45,0,.86.08,1.23.23.37.16.65.36.85.62.2.26.37.62.5,1.07l1.07-.29c-.15-.6-.38-1.09-.68-1.46-.3-.37-.71-.66-1.23-.87-.52-.21-1.11-.31-1.75-.31-.89,0-1.68.18-2.36.55-.68.37-1.21.93-1.57,1.68-.36.75-.55,1.57-.55,2.43s.18,1.67.55,2.38c.37.71.91,1.26,1.62,1.63.72.37,1.51.56,2.39.56.65,0,1.28-.12,1.9-.35.62-.23,1.22-.58,1.8-1.05v-3.32h-3.79v1.05h2.63ZM67.95,37.03c0,1.12-.19,1.88-.56,2.27-.37.39-.99.59-1.86.59-.51,0-.94-.1-1.29-.3-.35-.2-.6-.48-.74-.85-.14-.37-.22-.94-.22-1.72v-5.16h-1.18v5.16c0,.95.11,1.69.34,2.24.23.55.61.96,1.14,1.25.53.29,1.22.43,2.05.43s1.56-.17,2.09-.5c.53-.33.9-.76,1.1-1.29.2-.53.31-1.24.31-2.14v-5.16h-1.18v5.16ZM57.67,40.81v-7.88h2.96v-1.05h-7.08v1.05h2.94v7.88h1.18Z"/>
    <path class="st0" d="M137.04,23.69c.3.47.72.83,1.26,1.06.53.23,1.2.35,1.99.35.62,0,1.19-.12,1.69-.35s.88-.56,1.15-.98c.27-.42.4-.87.4-1.34s-.12-.9-.36-1.27-.62-.67-1.13-.91c-.35-.16-1-.35-1.94-.57-.94-.22-1.52-.43-1.75-.64-.23-.21-.34-.47-.34-.79,0-.37.16-.69.48-.95.32-.26.83-.39,1.53-.39s1.18.14,1.53.43c.34.29.55.72.61,1.28l1.11-.09c-.02-.52-.16-.99-.43-1.41-.27-.41-.65-.73-1.14-.94-.5-.21-1.07-.32-1.72-.32-.59,0-1.12.1-1.61.3-.48.2-.85.5-1.1.89-.25.39-.38.81-.38,1.26,0,.41.1.78.31,1.11s.52.61.93.83c.32.18.89.36,1.69.56.8.2,1.32.34,1.56.44.37.14.63.32.79.53.16.21.24.45.24.73s-.08.53-.25.77c-.16.23-.42.42-.76.55-.34.14-.73.2-1.17.2-.5,0-.95-.09-1.34-.27-.4-.18-.69-.41-.88-.69-.19-.29-.31-.65-.36-1.1l-1.09.1c.02.6.18,1.13.48,1.61M135.35,24.95v-1.05h-5.38v-3.04h4.85v-1.05h-4.85v-2.74h5.17v-1.06h-6.33v8.94h6.54ZM124.33,24.95l3.43-8.94h-1.18l-2.37,6.49c-.18.49-.34.98-.47,1.46-.12-.46-.28-.94-.46-1.46l-2.28-6.49h-1.25l3.39,8.94h1.19ZM118.59,16.02h-1.16v8.94h1.16v-8.94ZM109.59,24.95v-4.21h4.55v4.21h1.16v-8.94h-1.16v3.67h-4.55v-3.67h-1.16v8.94h1.16ZM104.9,23.52c-.45.38-1,.57-1.65.57-.53,0-1.03-.14-1.49-.42-.46-.28-.8-.7-1.01-1.27-.22-.57-.32-1.23-.32-1.99,0-.59.09-1.16.27-1.72.18-.55.5-1,.95-1.33.45-.33,1.01-.49,1.69-.49.59,0,1.07.15,1.46.44.39.3.68.77.88,1.42l1.14-.27c-.24-.83-.65-1.47-1.25-1.92-.6-.46-1.33-.68-2.21-.68-.77,0-1.48.18-2.12.54-.64.36-1.14.89-1.49,1.58-.35.69-.52,1.51-.52,2.44,0,.85.15,1.65.46,2.4.31.74.76,1.31,1.35,1.7.59.39,1.36.59,2.3.59s1.68-.26,2.32-.77c.63-.51,1.07-1.25,1.31-2.22l-1.16-.3c-.16.75-.46,1.32-.91,1.7M91.9,17.01h2.77c.65,0,1.12.14,1.42.41.3.27.45.62.45,1.04,0,.29-.08.56-.23.8-.16.25-.38.43-.68.54-.3.11-.71.17-1.24.17h-2.49v-2.96ZM91.9,24.95v-3.97h1.34c.3,0,.51.01.64.04.18.05.36.12.53.24.17.11.37.31.59.6.22.28.5.69.84,1.23l1.16,1.86h1.46l-1.52-2.43c-.3-.48-.62-.87-.96-1.19-.16-.15-.39-.3-.7-.44.84-.12,1.46-.39,1.86-.83.4-.43.6-.97.6-1.6,0-.49-.12-.94-.36-1.35-.24-.41-.57-.69-.97-.85-.41-.16-1-.24-1.78-.24h-3.88v8.94h1.16ZM85.09,18.66c.2-.57.36-1.13.47-1.71.13.48.34,1.1.62,1.85l.91,2.48h-2.97l.96-2.62ZM82.84,24.95l.96-2.71h3.66l1.02,2.71h1.32l-3.58-8.94h-1.25l-3.36,8.94h1.23ZM72.35,17.07h1.84c.69,0,1.19.06,1.5.18.43.17.8.51,1.1,1.01.3.5.45,1.22.45,2.16,0,.67-.08,1.25-.23,1.72-.15.47-.37.85-.64,1.13-.2.2-.46.35-.79.46-.33.11-.78.16-1.36.16h-1.87v-6.83ZM74.35,24.95c.53,0,1-.05,1.41-.15.41-.1.76-.25,1.05-.45.29-.2.55-.47.8-.81.24-.34.44-.78.6-1.3.15-.52.23-1.13.23-1.8,0-.8-.11-1.5-.34-2.12-.23-.62-.57-1.13-1.04-1.53-.36-.31-.78-.52-1.29-.64-.36-.09-.88-.13-1.56-.13h-3.02v8.94h3.16ZM63.45,24.95v-7.02l4.6,7.02h1.19v-8.94h-1.11v7.02l-4.6-7.02h-1.19v8.94h1.11ZM56.72,18.66c.2-.57.36-1.13.47-1.71.14.48.34,1.1.62,1.85l.91,2.48h-2.97l.96-2.62ZM54.46,24.95l.96-2.71h3.66l1.02,2.71h1.32l-3.59-8.94h-1.25l-3.36,8.94h1.23Z"/>
    <path class="st0" d="M104.28,9.1v-3.79l3.57-5.15h-1.38l-1.73,2.63c-.38.59-.71,1.11-.97,1.58-.28-.5-.58-1.01-.91-1.51l-1.76-2.7h-1.44l3.44,5.15v3.79h1.18ZM92.74,1.15h2.83c.66,0,1.15.14,1.45.41.31.27.46.62.46,1.04,0,.29-.08.56-.24.8-.16.25-.39.42-.69.54-.31.11-.73.17-1.27.17h-2.54V1.15ZM92.74,9.1v-3.97h1.37c.31,0,.52.01.66.04.18.05.36.12.54.24.18.11.38.31.6.6.22.28.51.69.85,1.23l1.18,1.86h1.49l-1.55-2.43c-.31-.48-.64-.87-.98-1.19-.16-.15-.4-.29-.71-.44.86-.12,1.49-.39,1.9-.83.41-.44.62-.97.62-1.6,0-.49-.12-.94-.37-1.35-.25-.41-.58-.69-.99-.85-.42-.16-1.02-.24-1.82-.24h-3.96v8.94h1.18ZM85.54,2.81c.21-.57.37-1.13.48-1.71.14.48.35,1.1.63,1.85l.93,2.47h-3.03l.98-2.62ZM83.24,9.1l.98-2.71h3.74l1.04,2.71h1.35L86.69.17h-1.27l-3.43,8.94h1.26ZM74.9,1.15h2.83c.66,0,1.15.14,1.45.41.31.27.46.62.46,1.04,0,.29-.08.56-.24.8-.16.25-.39.42-.69.54-.3.11-.73.17-1.27.17h-2.54V1.15ZM74.9,9.1v-3.97h1.37c.31,0,.52.01.66.04.18.05.36.12.54.24.18.11.38.31.6.6.22.28.51.69.85,1.23l1.18,1.86h1.49l-1.56-2.43c-.31-.48-.64-.87-.98-1.19-.16-.15-.4-.29-.71-.44.86-.12,1.49-.39,1.9-.83.41-.44.61-.97.61-1.6,0-.49-.12-.94-.37-1.35-.25-.41-.58-.69-.99-.85-.42-.16-1.02-.24-1.82-.24h-3.96v8.94h1.18ZM66.26,4.98h2.07c.57,0,1,.05,1.31.15.3.1.54.27.71.52.17.25.26.54.26.87,0,.28-.06.54-.18.75-.12.22-.27.38-.45.5-.18.11-.41.19-.68.24-.15.03-.42.04-.81.04h-2.22v-3.07ZM66.26,1.22h1.79c.64,0,1.1.04,1.36.12.26.08.47.24.61.46.14.23.21.49.21.78,0,.31-.08.57-.23.78-.15.21-.38.35-.68.44-.23.07-.6.1-1.13.1h-1.93V1.22ZM68.48,9.1c.57,0,1.05-.05,1.44-.15.39-.1.72-.25.98-.44.26-.19.48-.47.65-.83.18-.36.26-.75.26-1.17,0-.52-.14-.97-.44-1.35-.29-.38-.71-.65-1.25-.81.42-.21.73-.48.94-.82.21-.34.31-.7.31-1.08,0-.41-.12-.8-.35-1.18-.23-.38-.56-.65-.97-.84-.41-.18-.96-.27-1.64-.27h-3.35v8.94h3.41ZM62.79.17h-1.18v8.94h1.18V.17ZM59.75,9.1v-1.05h-4.4V.17h-1.18v8.94h5.58Z"/>
    <path class="st3" d="M170.55,35.17h-1.72v-18.88h1.72v18.88ZM166.71,35.17h-1.72v-18.88h1.72v18.88ZM162.87,35.17h-1.72v-18.88h1.72v18.88ZM159.52,16.83l-4.89,18.24-1.66-.45,4.89-18.24,1.66.44ZM150.45,35.17h-1.72v-18.88h1.72v18.88ZM174.72,10.66h-30.15v30.15h30.15V10.66ZM185.36,40.81V.01h-35.47v7.1h3.55v-3.55h28.38v33.7h-3.55v3.55h7.09Z"/>
    <text class="st2" transform="translate(.71 -9.37)"><tspan x="0" y="0">CMYK</tspan></text>
  </g>
</svg>